<?xml version="1.0" standalone="no"?>
<!DOCTYPE svg PUBLIC "-//W3C//DTD SVG 20010904//EN"
 "http://www.w3.org/TR/2001/REC-SVG-20010904/DTD/svg10.dtd">
<svg version="1.0" xmlns="http://www.w3.org/2000/svg"
 width="700.000000pt" height="700.000000pt" viewBox="0 0 700.000000 700.000000"
 preserveAspectRatio="xMidYMid meet">
<metadata>
Created by potrace 1.14, written by Peter Selinger 2001-2017
</metadata>
<g transform="translate(0.000000,700.000000) scale(0.100000,-0.100000)"
fill="#000000" stroke="none">
<path d="M2590 3480 l0 -1716 254 0 c140 1 257 3 259 6 3 3 7 315 8 693 2 379
6 690 10 693 4 2 29 -35 55 -83 66 -123 111 -205 174 -318 10 -17 36 -65 58
-107 46 -84 97 -175 112 -198 6 -8 13 -22 16 -30 6 -17 10 -24 81 -149 29 -51
53 -95 53 -96 0 -1 45 -82 100 -180 55 -98 100 -181 100 -184 0 -3 7 -15 16
-26 14 -19 27 -20 269 -21 l255 0 0 1155 0 1156 -165 -1 c-91 0 -165 0 -165 1
0 1 13 41 30 88 36 103 44 160 44 287 -1 91 -18 218 -34 250 -5 8 -10 28 -11
45 l-4 29 200 1 200 0 0 195 0 195 -95 1 c-52 1 -270 5 -485 8 -712 11 -1129
17 -1232 20 l-103 3 0 -1717z m869 1293 c86 -20 183 -135 206 -243 35 -158
-38 -321 -172 -386 -53 -26 -66 -28 -224 -32 l-169 -4 -1 128 c0 71 -2 221 -3
334 -2 113 -1 209 2 213 5 9 319 1 361 -10z m428 -1527 c1 -323 -2 -585 -5
-581 -7 7 -59 97 -117 205 -19 36 -49 90 -66 120 -17 30 -52 93 -77 140 -24
47 -48 90 -52 95 -4 6 -25 42 -45 80 -21 39 -75 138 -121 220 -45 83 -84 157
-86 164 -2 10 11 14 42 17 177 11 232 17 285 30 64 17 167 62 200 88 11 8 25
14 30 12 6 -2 11 -209 12 -590z"/>
</g>
</svg>
