<?xml version="1.0" standalone="no"?>
<!DOCTYPE svg PUBLIC "-//W3C//DTD SVG 20010904//EN"
 "http://www.w3.org/TR/2001/REC-SVG-20010904/DTD/svg10.dtd">
<svg version="1.0" xmlns="http://www.w3.org/2000/svg"
 width="500.000000pt" height="177.000000pt" viewBox="0 0 500.000000 177.000000"
 preserveAspectRatio="xMidYMid meet">

<g transform="translate(0.000000,177.000000) scale(0.100000,-0.100000)"
fill="#000000" stroke="none">
<path d="M390 880 l0 -490 70 0 70 0 1 153 c0 83 4 171 7 195 l7 43 107 -193
106 -193 76 -3 76 -3 0 331 0 330 -50 0 c-49 0 -50 1 -39 21 13 25 16 124 5
157 -7 21 -5 22 48 22 l56 0 0 53 0 54 -187 6 c-104 4 -225 7 -270 7 l-83 0 0
-490z m284 339 c24 -27 27 -38 23 -73 -8 -60 -43 -86 -113 -86 l-54 0 0 93 c0
52 3 97 8 101 4 5 30 5 57 2 39 -4 56 -12 79 -37z m86 -406 c0 -91 -2 -164 -4
-162 -11 11 -156 279 -156 288 0 6 19 11 43 11 23 1 56 7 72 15 17 7 33 14 38
14 4 1 7 -74 7 -166z"/>
<path d="M2508 1050 c-93 -16 -165 -107 -155 -196 10 -95 93 -167 192 -168 44
0 115 19 115 31 0 5 -30 63 -33 63 -1 0 -18 -4 -37 -10 -105 -30 -186 67 -130
157 23 38 52 47 121 41 47 -5 51 -3 64 23 8 15 15 30 15 32 0 17 -102 35 -152
27z"/>
<path d="M3138 1052 c-15 -2 -41 -16 -58 -32 -24 -22 -30 -36 -30 -69 0 -49
23 -77 91 -111 52 -27 61 -38 48 -62 -13 -23 -55 -23 -99 1 l-35 18 -17 -29
c-24 -39 -23 -43 20 -61 57 -24 88 -28 134 -18 58 13 88 49 88 106 0 36 -5 48
-30 69 -17 14 -51 34 -76 45 -37 17 -45 25 -42 43 2 19 9 23 38 23 19 -1 44
-4 56 -8 16 -6 23 -2 32 18 7 14 12 30 12 34 0 18 -84 39 -132 33z"/>
<path d="M3794 1050 c-87 -20 -144 -93 -144 -186 1 -120 107 -203 224 -173 51
13 107 66 125 118 44 134 -72 271 -205 241z m71 -82 c73 -33 71 -171 -2 -199
-66 -25 -123 22 -123 100 0 84 58 130 125 99z"/>
<path d="M1210 870 l0 -180 40 0 40 0 0 65 0 65 30 0 c78 0 140 52 140 117 -1
77 -56 113 -172 113 l-78 0 0 -180z m148 98 c7 -7 12 -21 12 -33 0 -29 -19
-45 -52 -45 -27 0 -28 2 -28 45 0 43 1 45 28 45 15 0 33 -5 40 -12z"/>
<path d="M1600 870 l0 -180 40 0 40 0 0 71 0 71 56 -71 55 -71 50 0 51 0 -30
38 c-17 20 -43 52 -59 71 l-29 33 33 33 c27 27 33 41 33 75 0 82 -41 110 -165
110 l-75 0 0 -180z m150 91 c5 -11 10 -24 10 -30 0 -18 -31 -41 -56 -41 -22 0
-24 4 -24 45 0 43 1 45 30 45 19 0 33 -7 40 -19z"/>
<path d="M2010 870 l0 -180 105 0 105 0 0 35 0 35 -65 0 -65 0 0 35 0 35 60 0
60 0 0 40 0 40 -60 0 -60 0 0 35 0 35 65 0 65 0 0 35 0 35 -105 0 -105 0 0
-180z"/>
<path d="M2800 870 l0 -180 40 0 40 0 0 180 0 180 -40 0 -40 0 0 -180z"/>
<path d="M3430 870 l0 -180 40 0 40 0 0 180 0 180 -40 0 -40 0 0 -180z"/>
<path d="M4150 870 l0 -180 40 0 39 0 3 107 3 108 68 -108 c68 -106 69 -107
108 -107 l39 0 0 180 0 180 -40 0 -40 0 0 -112 0 -112 -71 112 c-71 111 -71
112 -110 112 l-39 0 0 -180z"/>
</g>
</svg>
